<?xml version="1.0" encoding="utf-8"?>
<!-- Generator: Adobe Illustrator 23.0.3, SVG Export Plug-In . SVG Version: 6.00 Build 0)  -->
<svg version="1.1" id="Layer_1" xmlns="http://www.w3.org/2000/svg" xmlns:xlink="http://www.w3.org/1999/xlink" x="0px" y="0px"
	 viewBox="0 0 20 20" style="enable-background:new 0 0 20 20;" xml:space="preserve">
<style type="text/css">
	.st0{fill:#FFFFFF;}
</style>
<g>
	<rect x="0.2" y="0" width="20" height="20"/>
	<path class="st0" d="M7.7,10c0-1.4,1.1-2.5,2.5-2.5s2.5,1.1,2.5,2.5s-1.1,2.5-2.5,2.5S7.7,11.4,7.7,10 M6.4,10
		c0,2.1,1.7,3.8,3.8,3.8S14,12.1,14,10s-1.7-3.8-3.8-3.8S6.4,7.9,6.4,10 M13.2,6.1c0,0.5,0.4,0.9,0.9,0.9C14.6,7,15,6.6,15,6.1
		s-0.4-0.9-0.9-0.9C13.6,5.2,13.2,5.6,13.2,6.1 M7.2,16c-0.7,0-1.1-0.2-1.4-0.3c-0.3-0.1-0.6-0.3-0.8-0.6c-0.3-0.3-0.4-0.5-0.6-0.8
		c-0.1-0.3-0.2-0.6-0.3-1.4c0-0.8,0-1,0-3s0-2.2,0-3c0-0.7,0.2-1.1,0.3-1.4C4.6,5.3,4.8,5.1,5,4.8c0.3-0.3,0.5-0.4,0.8-0.6
		C6.1,4.2,6.5,4,7.2,4c0.8,0,1,0,3,0c2,0,2.2,0,3,0c0.7,0,1.1,0.2,1.4,0.3c0.3,0.1,0.6,0.3,0.8,0.6c0.3,0.3,0.4,0.5,0.6,0.8
		C16,5.9,16.2,6.3,16.2,7c0,0.8,0,1,0,3c0,2,0,2.2,0,3c0,0.7-0.2,1.1-0.3,1.4c-0.1,0.3-0.3,0.6-0.6,0.8c-0.3,0.3-0.5,0.4-0.8,0.6
		c-0.3,0.1-0.6,0.2-1.4,0.3c-0.8,0-1,0-3,0C8.2,16,8,16,7.2,16 M7.2,2.7C6.4,2.7,5.8,2.8,5.4,3C4.9,3.2,4.5,3.5,4.1,3.9
		S3.4,4.7,3.2,5.2c-0.2,0.5-0.3,1-0.3,1.8s0,1,0,3s0,2.2,0,3c0,0.8,0.2,1.3,0.3,1.8c0.2,0.5,0.4,0.9,0.8,1.3s0.8,0.7,1.3,0.8
		c0.5,0.2,1,0.3,1.8,0.3c0.8,0,1,0,3,0s2.2,0,3,0c0.8,0,1.3-0.2,1.8-0.3c0.5-0.2,0.9-0.4,1.3-0.8c0.4-0.4,0.7-0.8,0.8-1.3
		c0.2-0.5,0.3-1,0.3-1.8c0-0.8,0.1-1,0.1-3s0-2.2,0-3c0-0.8-0.2-1.3-0.3-1.8c-0.2-0.5-0.4-0.9-0.8-1.3C15.9,3.5,15.5,3.2,15,3
		c-0.5-0.2-1-0.3-1.8-0.3c-0.8,0-1,0-3,0C8.2,2.6,8,2.6,7.2,2.7"/>
</g>
</svg>
